<svg width="1440" height="150" viewBox="0 0 1440 150" fill="none" xmlns="http://www.w3.org/2000/svg">
<path d="M-15.3734 37.7827C-8.93373 44.4324 0.807961 48.4872 12.6189 50.8967C24.4914 53.3187 38.9438 54.1739 55.3215 54.0345C84.518 53.7861 120.48 50.36 159.937 46.6009C164.72 46.1452 169.554 45.6846 174.434 45.2242C265.023 36.6776 371.705 28.1638 461.014 50.8766C551.382 73.8587 624.281 83.8304 710.926 80.111C797.459 76.3964 897.576 59.0297 1042.35 27.5309C1186.61 -3.85625 1290.7 1.14585 1358.57 13.8952C1392.52 20.271 1417.43 28.5883 1433.81 35.2781C1442 38.6233 1448.05 41.5623 1452.04 43.6495C1453.73 44.5372 1455.05 45.2708 1456 45.8162V220H-16.5731C-16.8267 218.344 -17.164 216.113 -17.5663 213.389C-18.5013 207.058 -19.7874 198.062 -21.1905 187.412C-23.998 166.1 -27.268 138.208 -29.1349 111.793C-31.0114 85.2424 -31.4327 60.6281 -28.7202 45.6402C-28.0477 41.9245 -27.2116 38.9781 -26.248 36.8135C-25.2604 34.5948 -24.3144 33.5924 -23.6668 33.1994C-23.2347 32.9371 -22.6425 32.7438 -21.4104 33.2081C-20.0031 33.7383 -17.9986 35.0719 -15.3734 37.7827Z" fill="url(#paint0_radial)" stroke="#FFC973" stroke-width="8"/>
<defs>
<radialGradient id="paint0_radial" cx="0" cy="0" r="1" gradientUnits="userSpaceOnUse" gradientTransform="translate(684.5 -0.391457) rotate(87.7636) scale(269.081 1837.23)">
<stop stop-color="#922080"/>
<stop offset="1" stop-color="#372092"/>
</radialGradient>
</defs>
</svg>
